<svg width="14" height="12" viewBox="0 0 14 12" fill="none" xmlns="http://www.w3.org/2000/svg">
<path d="M12.8339 1.97115C12.3127 0.901701 10.8116 0.0267009 9.06552 0.536145C8.23114 0.777155 7.50316 1.29401 7.00052 2.00226C6.49787 1.29401 5.76989 0.777155 4.93552 0.536145C3.18552 0.0344786 1.6883 0.901701 1.16718 1.97115C0.436074 3.46837 0.739407 5.15226 2.06941 6.97615C3.11163 8.40337 4.60107 9.85003 6.7633 11.53C6.83163 11.5833 6.9158 11.6123 7.00246 11.6123C7.08912 11.6123 7.1733 11.5833 7.24163 11.53C9.39996 9.85392 10.8933 8.41892 11.9355 6.97615C13.2616 5.15226 13.565 3.46837 12.8339 1.97115Z" fill="#976464"/>
</svg>
