<svg width="10" height="15" viewBox="0 0 10 15" fill="none" xmlns="http://www.w3.org/2000/svg">
<path d="M5 14.0637C5 14.0637 10 9.20327 10 5.5156C10 4.15534 9.47322 2.85079 8.53553 1.88893C7.59785 0.927082 6.32608 0.386719 5 0.386719C3.67392 0.386719 2.40215 0.927082 1.46447 1.88893C0.526784 2.85079 1.97602e-08 4.15534 0 5.5156C0 9.20327 5 14.0637 5 14.0637ZM5 8.08005C4.33696 8.08005 3.70107 7.80986 3.23223 7.32894C2.76339 6.84801 2.5 6.19574 2.5 5.5156C2.5 4.83547 2.76339 4.1832 3.23223 3.70227C3.70107 3.22134 4.33696 2.95116 5 2.95116C5.66304 2.95116 6.29893 3.22134 6.76777 3.70227C7.23661 4.1832 7.5 4.83547 7.5 5.5156C7.5 6.19574 7.23661 6.84801 6.76777 7.32894C6.29893 7.80986 5.66304 8.08005 5 8.08005Z" fill="white"/>
</svg>
