<svg width="14" height="14" viewBox="0 0 14 14" fill="none" xmlns="http://www.w3.org/2000/svg">
<path d="M10.5 5.6875H9.625C9.62465 5.33951 9.48626 5.00587 9.24019 4.75981C8.99413 4.51374 8.66049 4.37535 8.3125 4.375V3.5C8.89245 3.50069 9.44844 3.73139 9.85853 4.14147C10.2686 4.55156 10.4993 5.10755 10.5 5.6875Z" fill="white"/>
<path d="M12.25 5.6875H11.375C11.3741 4.87556 11.0511 4.09714 10.477 3.52301C9.90286 2.94888 9.12444 2.62593 8.3125 2.625V1.75C9.35643 1.75116 10.3573 2.16637 11.0955 2.90455C11.8336 3.64272 12.2488 4.64357 12.25 5.6875Z" fill="white"/>
<path d="M8.89625 9.39838L9.87625 8.41838C10.0074 8.28717 10.1742 8.19733 10.356 8.16001C10.5377 8.12268 10.7264 8.1395 10.8987 8.20838L12.0922 8.68613C12.2681 8.75651 12.4189 8.87799 12.5251 9.03489C12.6313 9.19179 12.6881 9.37691 12.6881 9.56638V11.7368C12.6884 11.8658 12.6623 11.9935 12.6116 12.1121C12.5608 12.2307 12.4864 12.3377 12.3928 12.4265C12.2993 12.5154 12.1886 12.5842 12.0676 12.6288C11.9465 12.6733 11.8176 12.6927 11.6888 12.6858C3.32293 12.1651 1.63331 5.07938 1.31962 2.366C1.30443 2.23335 1.31749 2.09899 1.35795 1.97175C1.39841 1.8445 1.46535 1.72727 1.55437 1.62776C1.64339 1.52824 1.75247 1.4487 1.87443 1.39436C1.99639 1.34003 2.12848 1.31213 2.262 1.3125H4.39393C4.5834 1.3125 4.76852 1.36926 4.92542 1.47547C5.08232 1.58168 5.2038 1.73247 5.27418 1.90838L5.7515 3.10188C5.82038 3.27416 5.8372 3.46286 5.79987 3.6446C5.76254 3.82634 5.67271 3.99314 5.5415 4.12432L4.5615 5.10432C4.5615 5.10432 5.10487 8.92457 8.89625 9.39838Z" fill="white"/>
</svg>
